# xmcd
#
# Track frame offsets:
#	150
#	33487
#	46215
#	78925
#	97040
#	109467
#	173050
#	216192
#
# Disc length: 3956 seconds
#
# Revision: 1
# Processed by: cddbd v1.5.2PL0 Copyright (c) Steve Scherf et al.
# Submitted via: audiograbber 1.83.01
#
DISCID=670f7208
DTITLE=Ludwig van Beethoven - Klaviersonaten
DYEAR=1995
DGENRE=Classical
TTITLE0=Sonate Nr. 26 op.81 Es-dur "Les Adieux" Lebewohl: Adagio-Allegro
TTITLE1=Sonate Nr. 26 op.81 Es-dur "Les Adieux" Abwesenheit: Andante espressivo
TTITLE2=Sonate Nr. 26 op.81 Es-dur "Les Adieux" Wiedersehen: Vivacissimamente
TTITLE3=Sonate Nr. 30 op.109 E-dur  Vivace, ma non troppo
TTITLE4=Sonate Nr. 30 op.109 E-dur Prestissimo
TTITLE5=Sonate Nr. 30 op.109 E-dur  Andante molto cantabile e espressivo
TTITLE6=Sonate Nr. 32 op.111 c-moll Maestroso con brio ed appassionato
TTITLE7=Sonate Nr. 32 op.111 c-moll arietta: Adagio molto semplice e catabile
EXTD=
EXTT0=
EXTT1=
EXTT2=
EXTT3=
EXTT4=
EXTT5=
EXTT6=
EXTT7=
PLAYORDER=
